<?xml version="1.0" encoding="UTF-8" standalone="no"?><!-- Generator: Gravit.io --><svg xmlns="http://www.w3.org/2000/svg" xmlns:xlink="http://www.w3.org/1999/xlink" style="isolation:isolate" viewBox="0 0 1000 1000" width="1000pt" height="1000pt"><defs><clipPath id="_clipPath_mgHFJBmh6tAzspbmJ7uJ8VC2UH8rS9h9"><rect width="1000" height="1000"/></clipPath></defs><g clip-path="url(#_clipPath_mgHFJBmh6tAzspbmJ7uJ8VC2UH8rS9h9)"><defs><filter id="JKhJPhUKXii2lERkxaGGwzDMurHWyjdU" x="-200%" y="-200%" width="400%" height="400%" filterUnits="objectBoundingBox" color-interpolation-filters="sRGB"><feOffset xmlns="http://www.w3.org/2000/svg" in="SourceGraphic" dx="0" dy="0"/><feGaussianBlur xmlns="http://www.w3.org/2000/svg" stdDeviation="8.157857219394154" result="pf_100_offsetBlur"/><feComposite xmlns="http://www.w3.org/2000/svg" in="SourceGraphic" in2="pf_100_offsetBlur" result="pf_100_inverse" operator="out"/><feFlood xmlns="http://www.w3.org/2000/svg" flood-color="#000000" flood-opacity="1" result="pf_100_color"/><feComposite xmlns="http://www.w3.org/2000/svg" in="pf_100_color" in2="pf_100_inverse" operator="in" result="pf_100_shadow"/><feComposite xmlns="http://www.w3.org/2000/svg" in="pf_100_shadow" in2="SourceGraphic" operator="over"/></filter></defs><g filter="url(#JKhJPhUKXii2lERkxaGGwzDMurHWyjdU)"><path d=" M 806.059 193.941 L 346.971 193.941 C 262.498 193.941 193.941 262.498 193.941 346.971 L 193.941 806.059 L 682.497 806.059 C 750.687 806.059 806.059 750.699 806.059 682.497 L 806.059 193.941 Z " fill-rule="evenodd" fill="rgb(255,224,130)"/></g><path d=" M 806.059 193.941 L 346.971 193.941 C 262.498 193.941 193.941 262.498 193.941 346.971 L 193.941 806.059 L 682.497 806.059 C 750.687 806.059 806.059 750.699 806.059 682.497 L 806.059 193.941 Z " fill-rule="evenodd" fill="none" vector-effect="non-scaling-stroke" stroke-width="10.9" stroke="rgb(255,215,64)" stroke-linejoin="round" stroke-linecap="butt" stroke-miterlimit="1.414"/><defs><filter id="Cvvpvh1vKadUmw7XxmcH9HScr1hg5j5M" x="-200%" y="-200%" width="400%" height="400%" filterUnits="objectBoundingBox" color-interpolation-filters="sRGB"><feGaussianBlur xmlns="http://www.w3.org/2000/svg" in="SourceGraphic" stdDeviation="2.146804531419514"/><feOffset xmlns="http://www.w3.org/2000/svg" dx="0" dy="0" result="pf_100_offsetBlur"/><feFlood xmlns="http://www.w3.org/2000/svg" flood-color="#000000" flood-opacity="1"/><feComposite xmlns="http://www.w3.org/2000/svg" in2="pf_100_offsetBlur" operator="in" result="pf_100_dropShadow"/><feBlend xmlns="http://www.w3.org/2000/svg" in="SourceGraphic" in2="pf_100_dropShadow" mode="normal"/></filter></defs><g filter="url(#Cvvpvh1vKadUmw7XxmcH9HScr1hg5j5M)"><g clip-path="url(#_clipPath_FLgdsK5YjAYQy2p2L4sjOefLu5OtAY3E)"><text transform="matrix(1,0,0,1,399.916,764.301)" style="font-family:'Nova Square';font-weight:400;font-size:97px;font-style:normal;fill:#ffc107;stroke:none;">ORO</text></g><defs><clipPath id="_clipPath_FLgdsK5YjAYQy2p2L4sjOefLu5OtAY3E"><rect x="0" y="0" width="470.497" height="106.503" transform="matrix(1,0,0,1,264.752,671.185)"/></clipPath></defs></g><g><path d=" M 363.185 538.479 L 384.563 467.506 C 385.418 464.086 388.838 461.521 392.258 461.521 L 470.927 461.521 C 474.347 461.521 477.768 464.086 478.623 467.506 L 500 538.479 L 363.185 538.479 Z  M 636.815 538.479 L 615.438 467.506 C 613.727 464.086 611.162 461.521 607.742 461.521 L 529.073 461.521 C 525.653 461.521 522.232 464.086 521.377 467.506 L 500 538.479 L 636.815 538.479 Z  M 568.407 461.521 L 547.03 390.548 C 545.32 387.128 542.755 384.563 539.334 384.563 L 460.666 384.563 C 457.245 384.563 453.825 387.128 452.97 390.548 L 431.593 461.521 L 568.407 461.521 Z  M 431.593 615.438 L 410.215 544.465 C 408.505 541.044 405.94 538.479 402.519 538.479 L 323.851 538.479 C 320.431 538.479 317.01 541.044 316.155 544.465 L 294.778 615.438 L 431.593 615.438 Z  M 568.407 615.438 L 547.03 544.465 C 545.32 541.044 542.755 538.479 539.334 538.479 L 460.666 538.479 C 457.245 538.479 453.825 541.044 452.97 544.465 L 431.593 615.438 L 568.407 615.438 Z  M 705.222 615.438 L 683.845 544.465 C 682.135 541.044 679.569 538.479 676.149 538.479 L 597.481 538.479 C 594.06 538.479 590.64 541.044 589.785 544.465 L 568.407 615.438 L 705.222 615.438 Z " fill="rgb(255,193,7)"/><path d=" M 613.727 464.941 L 500 538.479 L 521.377 467.506 C 522.232 464.086 525.653 461.521 529.073 461.521 L 607.742 461.521 C 610.307 461.521 612.017 462.376 613.727 464.941 Z  M 470.927 461.521 L 392.258 461.521 C 388.838 461.521 385.418 464.086 384.563 467.506 L 363.185 538.479 L 476.913 464.941 C 475.202 462.376 473.492 461.521 470.927 461.521 Z  M 539.334 538.479 L 460.666 538.479 C 457.245 538.479 453.825 541.044 452.97 544.465 L 431.593 615.438 L 545.32 541.9 C 543.61 539.334 541.9 538.479 539.334 538.479 Z  M 676.149 538.479 L 597.481 538.479 C 594.06 538.479 590.64 541.044 589.785 544.465 L 568.407 615.438 L 682.135 541.9 C 680.425 539.334 678.714 538.479 676.149 538.479 Z  M 402.519 538.479 L 323.851 538.479 C 320.431 538.479 317.01 541.044 316.155 544.465 L 294.778 615.438 L 408.505 541.9 C 406.795 539.334 405.085 538.479 402.519 538.479 Z  M 539.334 384.563 L 460.666 384.563 C 457.245 384.563 453.825 387.128 452.97 390.548 L 431.593 461.521 L 545.32 387.983 C 543.61 385.418 541.9 384.563 539.334 384.563 Z " fill="rgb(255,215,64)"/></g></g></svg>