<?xml version="1.0" encoding="UTF-8" standalone="no"?><!-- Generator: Gravit.io --><svg xmlns="http://www.w3.org/2000/svg" xmlns:xlink="http://www.w3.org/1999/xlink" style="isolation:isolate" viewBox="0 0 1000 1000" width="1000pt" height="1000pt"><defs><clipPath id="_clipPath_TVzVNNUuJKKgHEZvVBARUSiHGXWqnGoQ"><rect width="1000" height="1000"/></clipPath></defs><g clip-path="url(#_clipPath_TVzVNNUuJKKgHEZvVBARUSiHGXWqnGoQ)"><defs><filter id="2ktpmy5Zg2LTXaOCB2Tf4LYgoo49SVXz" x="-200%" y="-200%" width="400%" height="400%" filterUnits="objectBoundingBox" color-interpolation-filters="sRGB"><feOffset xmlns="http://www.w3.org/2000/svg" in="SourceGraphic" dx="0" dy="0"/><feGaussianBlur xmlns="http://www.w3.org/2000/svg" stdDeviation="8.157857219394154" result="pf_100_offsetBlur"/><feComposite xmlns="http://www.w3.org/2000/svg" in="SourceGraphic" in2="pf_100_offsetBlur" result="pf_100_inverse" operator="out"/><feFlood xmlns="http://www.w3.org/2000/svg" flood-color="#000000" flood-opacity="1" result="pf_100_color"/><feComposite xmlns="http://www.w3.org/2000/svg" in="pf_100_color" in2="pf_100_inverse" operator="in" result="pf_100_shadow"/><feComposite xmlns="http://www.w3.org/2000/svg" in="pf_100_shadow" in2="SourceGraphic" operator="over"/></filter></defs><g filter="url(#2ktpmy5Zg2LTXaOCB2Tf4LYgoo49SVXz)"><path d=" M 806.059 193.941 L 346.971 193.941 C 262.498 193.941 193.941 262.498 193.941 346.971 L 193.941 806.059 L 682.497 806.059 C 750.687 806.059 806.059 750.699 806.059 682.497 L 806.059 193.941 Z " fill-rule="evenodd" fill="rgb(210,165,99)"/></g><path d=" M 806.059 193.941 L 346.971 193.941 C 262.498 193.941 193.941 262.498 193.941 346.971 L 193.941 806.059 L 682.497 806.059 C 750.687 806.059 806.059 750.699 806.059 682.497 L 806.059 193.941 Z " fill-rule="evenodd" fill="none" vector-effect="non-scaling-stroke" stroke-width="10.9" stroke="rgb(148,172,183)" stroke-linejoin="round" stroke-linecap="butt" stroke-miterlimit="1.414"/><g filter="url(#uufUs4oWtoC67QFlMe44pja4j6qB852S)"><path d=" M 562.254 328.816 C 551.516 328.816 540.494 337.004 532.296 342.044 C 516.347 351.811 498.525 350.642 480.313 350.642 C 475.824 350.642 471.25 350.394 466.637 349.947 C 457.46 349.025 446.837 347.836 436.518 347.836 C 431.44 347.836 426.457 348.102 421.749 348.844 C 394.055 353.19 393.732 384.032 376.309 400.437 C 367.949 408.283 359.209 412.135 356.385 423.928 C 353.589 435.606 358.125 450.071 359.39 461.408 C 360.712 473.172 362.681 484.565 357.631 495.445 C 352.714 506.068 343.422 513.59 339.647 525.402 C 334.53 541.379 340.522 555.902 343.632 571.479 C 346.561 586.125 343.632 594.741 341.872 608.893 C 338.905 632.469 350.584 645.916 373.703 650.453 C 381.169 651.917 388.958 653.572 396.414 654.647 C 403.033 655.626 411.801 653.734 417.564 658.108 C 424.364 663.187 420.769 670.709 431.193 671.099 C 432.562 671.156 433.913 671.185 435.253 671.185 C 462.995 671.185 486.2 661.085 512.943 655.398 C 520.675 653.743 529.69 652.459 537.517 650.519 C 554.607 646.268 571.887 645.127 589.091 641.931 C 604.793 639.05 614.598 634.133 622.425 620.067 C 631.041 604.623 650.195 602.549 656.31 585.488 C 660.77 573.049 660.39 559.649 658.887 545.992 C 657.394 532.297 653.514 526.353 647.713 514.656 C 641.008 501.227 648.835 498.621 655.483 488.036 C 659.629 481.484 663.766 470.68 661.873 462.815 C 660.637 457.565 658.193 450.3 655.188 445.811 C 653 442.492 649.12 440.884 647.713 436.833 C 645.316 430.052 650.499 421.902 650.195 414.874 C 649.567 401.664 640.742 397.385 630.328 392.981 C 616.652 387.18 612.629 381.074 614.046 367.009 C 616.69 340.722 592.22 337.042 571.621 331.269 C 568.77 329.638 565.538 328.791 562.254 328.816 Z " fill="rgb(255,235,196)"/><path d=" M 656.31 585.488 C 660.77 573.049 660.39 559.649 658.887 545.992 C 657.394 532.297 653.514 526.353 647.713 514.656 C 641.008 501.227 648.835 498.621 655.483 488.036 C 659.629 481.484 663.766 470.68 661.873 462.815 C 660.637 457.565 658.193 450.3 655.188 445.811 C 653 442.492 649.12 440.884 647.713 436.833 C 645.316 430.052 650.499 421.902 650.195 414.874 C 649.567 401.664 640.742 397.385 630.328 392.981 C 616.652 387.18 612.629 381.074 614.046 367.009 C 616.69 340.722 592.22 337.042 571.621 331.269 C 570.106 330.411 568.476 329.773 566.78 329.377 C 584.964 339.705 587.323 379.248 586.191 392.706 C 585.544 400.057 582.482 406.048 583.262 414.132 C 583.984 421.636 587.094 427.884 587.142 435.549 C 587.265 453.657 578.906 464.46 584.993 482.492 C 590.375 498.536 592.648 511.232 573.514 519.563 C 566.6 522.568 559.011 523.148 552.8 526.829 C 544.669 531.631 543.033 533.98 533.59 535.854 C 519.153 538.726 505.582 545.944 505.715 562.359 C 505.801 571.261 508.549 574.798 502.862 582.102 C 498.44 587.799 490.67 595.569 483.128 596.368 C 477.355 597.014 474.987 592.278 469.842 590.585 C 463.775 588.607 457.993 590.89 452.724 594.019 C 435.215 604.394 378.116 631.384 356.813 618.108 C 350.422 614.123 346.361 608.683 342.709 603.015 C 342.406 604.97 342.13 606.93 341.882 608.893 C 338.915 632.469 350.593 645.916 373.713 650.453 C 381.178 651.917 388.967 653.572 396.423 654.647 C 403.042 655.626 411.811 653.734 417.574 658.108 C 424.374 663.187 420.779 670.709 431.202 671.099 C 432.562 671.156 433.913 671.185 435.253 671.185 C 462.995 671.185 486.2 661.085 512.943 655.398 C 520.675 653.743 529.69 652.459 537.517 650.519 C 554.607 646.268 571.887 645.127 589.091 641.931 C 604.793 639.05 614.598 634.133 622.425 620.067 C 631.041 604.623 650.185 602.549 656.31 585.488 Z " fill="rgb(203,158,97)"/><path d=" M 479.533 440.685 C 479.4 436.605 482.206 428.521 485.002 425.611 C 489.576 420.894 497.764 422.539 503.223 418.697 C 509.101 414.598 532.971 396.415 538.231 408.416 C 542.025 417.023 532.8 424.546 541.293 432.021 C 545.306 435.521 548.796 435.568 547.256 441.37 C 546.219 445.345 541.997 448.778 541.759 452.877 C 541.502 456.757 545.943 459.192 545.953 462.435 C 545.981 468.141 538.459 469.158 534.674 471.241 C 527.869 475.029 521.632 479.758 516.148 485.288 C 510.803 490.766 506.295 496.767 497.669 496.348 C 480.199 495.454 487.836 474.608 486.381 463.633 C 485.335 455.701 479.771 448.873 479.533 440.685 Z  M 410.099 518.25 C 408.672 516.149 407.398 510.966 407.864 508.521 C 408.672 504.48 413.523 502.587 415.082 498.726 C 416.794 494.579 423.137 476.957 429.966 481.474 C 434.873 484.708 432.562 491.755 439.581 492.81 C 442.862 493.267 444.707 492.116 445.867 495.702 C 446.704 498.146 445.62 501.389 446.875 503.586 C 448.073 505.725 451.212 505.488 452.324 507.2 C 454.265 510.176 450.679 513.248 449.386 515.626 C 447.091 519.915 445.423 524.511 444.431 529.273 C 443.461 533.971 443.157 538.631 438.506 541.341 C 429.015 546.791 425.962 533.277 421.483 528.008 C 418.24 524.147 413.009 522.463 410.099 518.25 Z " fill="rgb(250,205,137)"/></g><defs><filter id="uufUs4oWtoC67QFlMe44pja4j6qB852S" x="-200%" y="-200%" width="400%" height="400%" filterUnits="objectBoundingBox" color-interpolation-filters="sRGB"><feGaussianBlur xmlns="http://www.w3.org/2000/svg" in="SourceGraphic" stdDeviation="4.293609062839028"/><feOffset xmlns="http://www.w3.org/2000/svg" dx="0" dy="0" result="pf_100_offsetBlur"/><feFlood xmlns="http://www.w3.org/2000/svg" flood-color="#000000" flood-opacity="1"/><feComposite xmlns="http://www.w3.org/2000/svg" in2="pf_100_offsetBlur" operator="in" result="pf_100_dropShadow"/><feBlend xmlns="http://www.w3.org/2000/svg" in="SourceGraphic" in2="pf_100_dropShadow" mode="normal"/></filter></defs><defs><filter id="HsqaANIWgvtWFX0lFtcvw8WSztdmCU9h" x="-200%" y="-200%" width="400%" height="400%" filterUnits="objectBoundingBox" color-interpolation-filters="sRGB"><feGaussianBlur xmlns="http://www.w3.org/2000/svg" in="SourceGraphic" stdDeviation="2.146804531419514"/><feOffset xmlns="http://www.w3.org/2000/svg" dx="0" dy="0" result="pf_100_offsetBlur"/><feFlood xmlns="http://www.w3.org/2000/svg" flood-color="#000000" flood-opacity="1"/><feComposite xmlns="http://www.w3.org/2000/svg" in2="pf_100_offsetBlur" operator="in" result="pf_100_dropShadow"/><feBlend xmlns="http://www.w3.org/2000/svg" in="SourceGraphic" in2="pf_100_dropShadow" mode="normal"/></filter></defs><g filter="url(#HsqaANIWgvtWFX0lFtcvw8WSztdmCU9h)"><g clip-path="url(#_clipPath_WmZREPqpBVYNRvWHTXs9jC1w48S3dbPg)"><text transform="matrix(1,0,0,1,357.384,764.301)" style="font-family:'Nova Square';font-weight:400;font-size:97px;font-style:normal;fill:#ffebc4;stroke:none;">PIRITA</text></g><defs><clipPath id="_clipPath_WmZREPqpBVYNRvWHTXs9jC1w48S3dbPg"><rect x="0" y="0" width="470.497" height="106.503" transform="matrix(1,0,0,1,264.752,671.185)"/></clipPath></defs></g></g></svg>