<?xml version="1.0" encoding="UTF-8" standalone="no"?><!-- Generator: Gravit.io --><svg xmlns="http://www.w3.org/2000/svg" xmlns:xlink="http://www.w3.org/1999/xlink" style="isolation:isolate" viewBox="0 0 1000 1000" width="1000pt" height="1000pt"><defs><clipPath id="_clipPath_MMVSNC6Y0r4DA3aQ1dXR8hovHfIXYrvr"><rect width="1000" height="1000"/></clipPath></defs><g clip-path="url(#_clipPath_MMVSNC6Y0r4DA3aQ1dXR8hovHfIXYrvr)"><defs><filter id="DxZxEUINWhEqabFkbmEoFqU5G57He0mk" x="-200%" y="-200%" width="400%" height="400%" filterUnits="objectBoundingBox" color-interpolation-filters="sRGB"><feOffset xmlns="http://www.w3.org/2000/svg" in="SourceGraphic" dx="0" dy="0"/><feGaussianBlur xmlns="http://www.w3.org/2000/svg" stdDeviation="8.157857219394154" result="pf_100_offsetBlur"/><feComposite xmlns="http://www.w3.org/2000/svg" in="SourceGraphic" in2="pf_100_offsetBlur" result="pf_100_inverse" operator="out"/><feFlood xmlns="http://www.w3.org/2000/svg" flood-color="#000000" flood-opacity="1" result="pf_100_color"/><feComposite xmlns="http://www.w3.org/2000/svg" in="pf_100_color" in2="pf_100_inverse" operator="in" result="pf_100_shadow"/><feComposite xmlns="http://www.w3.org/2000/svg" in="pf_100_shadow" in2="SourceGraphic" operator="over"/></filter></defs><g filter="url(#DxZxEUINWhEqabFkbmEoFqU5G57He0mk)"><path d=" M 806.059 193.941 L 346.971 193.941 C 262.498 193.941 193.941 262.498 193.941 346.971 L 193.941 806.059 L 682.497 806.059 C 750.687 806.059 806.059 750.699 806.059 682.497 L 806.059 193.941 Z " fill-rule="evenodd" fill="rgb(180,210,226)"/></g><path d=" M 806.059 193.941 L 346.971 193.941 C 262.498 193.941 193.941 262.498 193.941 346.971 L 193.941 806.059 L 682.497 806.059 C 750.687 806.059 806.059 750.699 806.059 682.497 L 806.059 193.941 Z " fill-rule="evenodd" fill="none" vector-effect="non-scaling-stroke" stroke-width="10.9" stroke="rgb(216,232,240)" stroke-linejoin="round" stroke-linecap="butt" stroke-miterlimit="1.414"/><defs><filter id="TOmOORgZwZM3D6Ahp5JrAQjNoXsuMz79" x="-200%" y="-200%" width="400%" height="400%" filterUnits="objectBoundingBox" color-interpolation-filters="sRGB"><feGaussianBlur xmlns="http://www.w3.org/2000/svg" in="SourceGraphic" stdDeviation="2.146804531419514"/><feOffset xmlns="http://www.w3.org/2000/svg" dx="0" dy="0" result="pf_100_offsetBlur"/><feFlood xmlns="http://www.w3.org/2000/svg" flood-color="#000000" flood-opacity="1"/><feComposite xmlns="http://www.w3.org/2000/svg" in2="pf_100_offsetBlur" operator="in" result="pf_100_dropShadow"/><feBlend xmlns="http://www.w3.org/2000/svg" in="SourceGraphic" in2="pf_100_dropShadow" mode="normal"/></filter></defs><g filter="url(#TOmOORgZwZM3D6Ahp5JrAQjNoXsuMz79)"><g clip-path="url(#_clipPath_WS0MjGgrhag1NkgTn9Keu56MpydFlunk)"><text transform="matrix(1,0,0,1,342.133,764.301)" style="font-family:'Nova Square';font-weight:400;font-size:97px;font-style:normal;fill:#dff0fe;stroke:none;">Platino</text></g><defs><clipPath id="_clipPath_WS0MjGgrhag1NkgTn9Keu56MpydFlunk"><rect x="0" y="0" width="470.497" height="106.503" transform="matrix(1,0,0,1,264.752,671.185)"/></clipPath></defs></g><g><path d=" M 541.413 371.48 C 509.926 371.48 466.365 394.701 430.441 430.617 C 404.77 456.296 385.643 485.325 376.641 512.368 C 368.21 537.71 369.711 557.858 380.928 569.047 C 387.301 575.441 396.568 578.678 408.399 578.678 C 413.544 578.678 419.038 578.006 424.732 576.806 C 416.187 552.921 420.903 532.073 474.074 473.436 C 508.869 435.054 556.517 412.341 576.637 424.709 C 580.659 405.561 578.087 390.293 568.877 381.112 C 562.511 374.717 553.245 371.48 541.42 371.48 L 541.413 371.48 Z " fill="rgb(182,220,254)"/><path d=" M 535.633 414.349 C 547.85 414.156 565.662 416.635 577.022 422.837 C 577.444 420.658 577.751 418.507 578.001 416.442 C 578.001 416.221 578.03 416.021 578.058 415.799 C 578.666 409.883 578.558 404.468 577.723 399.581 C 577.665 399.166 577.637 398.723 577.551 398.295 C 577.33 397.216 577.022 396.208 576.744 395.151 C 576.458 394.222 576.215 393.308 575.879 392.436 C 575.58 391.613 575.246 390.802 574.879 390.007 C 574.409 388.964 573.877 387.95 573.286 386.97 C 572.95 386.413 572.643 385.827 572.278 385.27 C 571.276 383.787 570.145 382.396 568.899 381.112 C 567.33 379.552 565.59 378.174 563.712 377.003 C 561.929 375.938 560.052 375.041 558.103 374.324 C 557.903 374.245 557.767 374.16 557.567 374.074 C 553.159 372.488 548.108 371.645 542.442 371.566 C 532.982 371.731 522.151 373.738 510.712 377.368 C 484.755 386.413 455.698 405.361 430.441 430.617 C 411.722 449.322 396.561 469.806 386.208 490.012 C 383.805 494.924 381.541 499.904 379.42 504.944 C 379.149 505.637 378.892 506.337 378.642 507.038 C 420.481 465.955 486.37 415.156 535.633 414.349 Z " fill="rgb(152,204,253)"/><path d=" M 461.399 632.178 C 429.326 632.149 407.778 615.38 397.761 605.385 C 381.521 589.145 374.183 572.005 370.854 559.944 C 372.554 564.296 375.118 568.257 378.392 571.59 C 385.479 578.649 395.56 582.25 408.399 582.25 C 440.801 582.25 485.341 558.608 521.901 522.049 C 547.972 496.013 567.363 466.484 576.551 438.934 C 585.453 412.227 583.638 390.793 571.407 378.568 C 565.526 372.709 557.567 369.223 547.686 368.215 L 554.724 368.573 C 565.412 370.359 584.503 376.31 604.765 395.708 C 621.841 412.784 670.268 476.229 573.564 572.926 C 534.24 612.222 496.501 632.178 461.392 632.178 L 461.399 632.178 Z  M 369.704 524.092 C 375.848 494.62 396.782 459.204 427.897 428.088 C 464.464 391.55 509.004 367.908 541.413 367.908 C 509.004 367.908 464.464 391.55 427.905 428.11 C 401.833 454.145 382.443 483.674 373.254 511.224 C 371.828 515.44 370.645 519.734 369.711 524.085 L 369.704 524.092 Z " fill="rgb(223,240,254)"/><path d=" M 577.444 380.126 C 585.032 384.098 593.491 389.842 602.193 398.159 C 618.748 414.713 665.381 476.058 571.021 570.419 C 532.425 609.014 495.529 628.605 461.392 628.605 C 430.641 628.605 409.9 612.472 400.304 602.877 C 393.33 595.941 387.38 588.045 382.635 579.428 C 389.587 583.672 398.211 585.823 408.392 585.823 C 441.687 585.823 487.242 561.795 524.416 524.592 C 550.873 498.135 570.606 468.127 579.952 440.056 C 588.382 414.713 587.454 393.693 577.444 380.133 M 546.707 364.25 L 545.643 364.25 C 545.643 364.25 546.121 364.364 546.9 364.586 C 545.814 364.529 544.778 364.364 543.635 364.364 C 543.215 364.369 542.796 364.388 542.378 364.421 L 542.406 364.421 C 542.07 364.421 541.763 364.336 541.406 364.336 C 508.926 364.336 464.186 386.77 425.39 425.566 C 378.977 471.978 356.121 526.821 366.946 559.116 C 370.104 571.505 377.527 590.202 395.253 607.9 C 407.028 619.703 429.519 635.75 461.392 635.75 C 491.564 635.75 530.16 621.382 576.072 575.441 C 670.547 480.995 630.051 415.914 607.245 393.108 C 578.644 365.765 552.209 364.25 546.714 364.25 L 546.707 364.25 Z  M 408.385 578.678 C 396.553 578.678 387.287 575.441 380.928 569.047 C 369.711 557.858 368.196 537.71 376.627 512.339 C 385.643 485.325 404.763 456.296 430.434 430.617 C 466.365 394.701 509.926 371.48 541.42 371.48 C 553.252 371.48 562.519 374.717 568.877 381.112 C 580.095 392.3 581.609 412.448 573.178 437.819 C 564.162 464.834 545.043 493.863 519.371 519.541 C 483.441 555.457 439.879 578.678 408.385 578.678 Z " fill="rgb(71,136,199)"/><path d=" M 398.154 530.808 C 394.217 531.901 392.295 537.288 394.639 540.611 C 396.954 543.933 402.705 543.897 405.02 540.582 C 406.413 538.603 406.556 535.974 406.327 533.552 C 405.827 527.607 403.598 521.906 403.041 515.968 C 402.476 509.995 404.205 503.179 409.457 500.279 C 406.027 502.401 403.677 506.616 404.684 510.524 C 405.713 514.432 410.743 516.997 414.115 514.825 C 416.402 513.339 417.273 510.381 417.187 507.681 C 417.073 504.966 416.187 502.372 415.68 499.721 C 413.558 488.504 419.109 476.251 428.933 470.471 C 425.032 472.65 421.646 476.587 421.932 481.045 C 422.239 485.489 427.819 489.204 431.391 486.546 C 433.12 485.296 433.849 483.088 434.321 480.995 C 435.771 474.579 435.692 467.82 437.921 461.633 C 440.129 455.46 445.681 449.651 452.24 450.215 C 448.753 449.287 444.759 451.694 443.952 455.181 C 443.116 458.668 445.623 462.604 449.146 463.326 C 450.503 463.612 452.047 463.412 453.075 462.519 C 453.89 461.797 454.304 460.733 454.669 459.704 C 456.762 453.759 457.655 447.415 459.913 441.556 C 462.178 435.669 466.222 430.003 472.223 428.024 C 473.202 427.688 474.538 427.602 475.01 428.553 C 471.735 428.048 468.591 430.041 467.651 433.218 C 466.836 436.312 468.737 439.884 471.752 440.92 C 472.462 441.203 473.247 441.241 473.981 441.027 C 474.767 440.777 475.324 440.134 475.796 439.498 C 478.225 436.176 479.147 432.018 480.04 427.995 C 480.933 424.009 481.969 419.85 484.562 416.664 C 487.184 413.513 491.85 411.612 495.529 413.484 C 492.064 412.141 487.713 414.206 486.57 417.728 C 485.398 421.215 487.656 425.488 491.228 426.459 C 494.801 427.438 498.93 424.98 499.745 421.351" fill="none" vector-effect="non-scaling-stroke" stroke-width="1" stroke="rgb(71,136,199)" stroke-linejoin="round" stroke-linecap="round" stroke-miterlimit="10"/><path d=" M 420.617 462.412 C 414.98 470.142 413.529 480.245 414.337 489.79 C 415.151 499.336 417.966 508.567 420.174 517.89 C 420.981 521.406 421.71 525.064 421.317 528.665 C 420.924 532.266 419.195 535.924 416.101 537.789" fill="none" vector-effect="non-scaling-stroke" stroke-width="1" stroke="rgb(71,136,199)" stroke-linejoin="round" stroke-linecap="round" stroke-miterlimit="10"/><path d=" M 585.646 414.349 C 585.76 416.299 585.289 418.9 584.56 421.715 C 583.67 426.852 582.438 431.924 580.873 436.898 C 580.538 437.962 580.316 438.991 579.952 440.084 C 579.594 441.085 579.144 442.149 578.78 443.156 L 577.858 445.636 C 576.423 449.444 574.841 453.196 573.114 456.882 C 572.836 457.467 572.585 458.053 572.307 458.668 C 571.307 460.761 570.235 462.855 569.127 464.948 C 568.763 465.677 568.341 466.398 567.949 467.156 C 565.458 471.773 562.795 476.297 559.968 480.716 C 570.992 489.004 608.088 521.884 574.786 566.482 C 586.26 554.679 595.499 543.376 602.836 532.63 C 648.748 458.139 595.006 411.698 585.646 414.349 Z " fill="rgb(255,255,255)"/><path d=" M 422.375 620.596 C 441.444 620.017 460.109 614.95 476.853 605.806 C 480.318 603.906 480.068 600.505 480.654 596.625 C 481.654 589.867 484.534 582.029 491.2 580.628 C 486.656 581.972 483.105 586.859 484.112 591.488 C 485.112 596.118 491.343 599.055 495.165 596.232 C 498.595 593.696 498.623 588.695 498.795 584.401 C 499.102 575.72 503.01 565.474 511.605 564.081 C 506.632 565.196 503.789 571.726 506.354 576.113 C 508.926 580.521 515.985 581.243 519.414 577.478 C 519.649 570.056 521.588 562.789 525.08 556.236 C 526.952 552.778 529.746 549.234 533.654 548.813 C 528.938 548.756 526.009 555.236 528.545 559.223 C 531.053 563.217 537.112 563.917 541.077 561.345 C 545.035 558.808 546.964 553.843 546.907 549.127 C 546.879 546.527 546.35 543.962 546.407 541.389 C 546.613 534.69 550.68 528.717 556.838 526.071 C 552.352 528.972 548.693 534.973 551.566 539.468 C 554.223 543.597 560.89 543.233 564.376 539.803 C 567.87 536.395 568.82 531.122 568.842 526.235 C 568.87 521.356 568.177 516.383 569.177 511.61 C 570.178 506.809 573.421 502.036 578.251 501.179 C 574.457 501.758 571.021 504.944 570.856 508.767 C 570.628 512.56 574.343 516.304 578.108 515.554 C 581.016 514.983 582.995 512.196 584.11 509.438 C 586.264 504.079 586.414 498.123 584.531 492.662 C 583.974 491.069 583.245 489.533 583.053 487.89 C 582.409 482.867 586.596 478.652 590.39 475.301 C 587.877 476.397 586.069 478.665 585.56 481.359 C 584.81 485.653 588.347 490.347 592.705 490.347 C 597.063 490.347 600.607 485.068 598.649 481.188" fill="none" vector-effect="non-scaling-stroke" stroke-width="1" stroke="rgb(71,136,199)" stroke-linejoin="round" stroke-linecap="round" stroke-miterlimit="10"/><path d=" M 555.309 502.658 C 549.202 509.768 545.733 518.766 545.485 528.136 C 545.293 537.288 548.165 546.248 548.944 555.343 C 549.729 564.474 547.8 574.798 540.406 580.185" fill="none" vector-effect="non-scaling-stroke" stroke-width="1" stroke="rgb(71,136,199)" stroke-linejoin="round" stroke-linecap="round" stroke-miterlimit="10"/><path d=" M 461.399 628.605 C 480.483 628.605 500.438 622.461 521.058 610.3 C 471.616 626.483 421.603 607.757 387.63 581.972 C 385.905 581.242 384.234 580.392 382.628 579.428 C 387.376 588.036 393.328 595.922 400.304 602.848 C 409.9 612.472 430.641 628.605 461.392 628.605 L 461.399 628.605 Z " fill="rgb(182,220,254)"/></g></g></svg>